HIERARCHY
ROOT Hips
{
  OFFSET 55.2346 91.5967 14.0732
  CHANNELS 6 Xposition Yposition Zposition Zrotation Xrotation Yrotation
  JOINT spine
  {
    OFFSET 0 6.84637 0.3937
    CHANNELS 3 Zrotation Xrotation Yrotation
    JOINT spine1
    {
      OFFSET 0 9.49621 0
      CHANNELS 3 Zrotation Xrotation Yrotation
      JOINT spine2
      {
        OFFSET 0 9.09909 0
        CHANNELS 3 Zrotation Xrotation Yrotation
        JOINT Neck
        {
          OFFSET 0 23.3612 1.11378
          CHANNELS 3 Zrotation Xrotation Yrotation
          JOINT Head
          {
            OFFSET 0 7.05802 0
            CHANNELS 3 Zrotation Xrotation Yrotation
            End Site
            {
              OFFSET 0 17.0844 -5.63419
            }
          }
        }
        JOINT RightShoulder
        {
          OFFSET -3.83136 9.82631 -0.533491
          CHANNELS 3 Zrotation Xrotation Yrotation
          JOINT RightArm
          {
            OFFSET 0 12.8881 0
            CHANNELS 3 Zrotation Xrotation Yrotation
            JOINT RightArmRoll
            {
              OFFSET 0 6.50617 0
              CHANNELS 3 Zrotation Xrotation Yrotation
              JOINT RightForeArm
              {
                OFFSET 0 18.9501 0
                CHANNELS 3 Zrotation Xrotation Yrotation
                JOINT RightForeArmRoll
                {
                  OFFSET 0 7.30092 0
                  CHANNELS 3 Zrotation Xrotation Yrotation
                  JOINT RightHand
                  {
                    OFFSET 0 14.6514 0
                    CHANNELS 3 Zrotation Xrotation Yrotation
                    End Site
                    {
                      OFFSET 0 0 0
                    }
                  }
                }
              }
            }
          }
        }
        JOINT LeftShoulder
        {
          OFFSET 3.83136 9.82631 -0.533491
          CHANNELS 3 Zrotation Xrotation Yrotation
          JOINT LeftArm
          {
            OFFSET 0 12.8881 0
            CHANNELS 3 Zrotation Xrotation Yrotation
            JOINT LeftArmRoll
            {
              OFFSET 0 6.50617 0
              CHANNELS 3 Zrotation Xrotation Yrotation
              JOINT LeftForeArm
              {
                OFFSET 0 18.9501 0
                CHANNELS 3 Zrotation Xrotation Yrotation
                JOINT LeftForeArmRoll
                {
                  OFFSET 0 7.30092 0
                  CHANNELS 3 Zrotation Xrotation Yrotation
                  JOINT LeftHand
                  {
                    OFFSET 0 14.6514 0
                    CHANNELS 3 Zrotation Xrotation Yrotation
                    End Site
                    {
                      OFFSET 0 0 0
                    }
                  }
                }
              }
            }
          }
        }
      }
    }
  }
  JOINT RightUpLeg
  {
    OFFSET -6.06837 -1.11278 -0.933477
    CHANNELS 3 Zrotation Xrotation Yrotation
    JOINT RightUpLegRoll
    {
      OFFSET 0 17.1796 0
      CHANNELS 3 Zrotation Xrotation Yrotation
      JOINT RightLeg
      {
        OFFSET 0 -21.2743 0
        CHANNELS 3 Zrotation Xrotation Yrotation
        JOINT RightLegRoll
        {
          OFFSET 0 21.3439 0
          CHANNELS 3 Zrotation Xrotation Yrotation
          JOINT RightFoot
          {
            OFFSET 0 17.7652 0
            CHANNELS 3 Zrotation Xrotation Yrotation
            JOINT RightToeBase
            {
              OFFSET 0 14.8508 0
              CHANNELS 3 Zrotation Xrotation Yrotation
              End Site
              {
                OFFSET 0.0062947 7.19214 -0.829004
              }
            }
          }
        }
      }
    }
  }
  JOINT LeftUpLeg
  {
    OFFSET 6.06837 -1.11278 -0.933477
    CHANNELS 3 Zrotation Xrotation Yrotation
    JOINT LeftUpLegRoll
    {
      OFFSET 0 17.1797 0
      CHANNELS 3 Zrotation Xrotation Yrotation
      JOINT LeftLeg
      {
        OFFSET 0 21.2742 0
        CHANNELS 3 Zrotation Xrotation Yrotation
        JOINT LeftLegRoll
        {
          OFFSET 0 21.5412 0
          CHANNELS 3 Zrotation Xrotation Yrotation
          JOINT LeftFoot
          {
            OFFSET 0 17.5679 0
            CHANNELS 3 Zrotation Xrotation Yrotation
            JOINT LeftToeBase
            {
              OFFSET 0 14.8508 0
              CHANNELS 3 Zrotation Xrotation Yrotation
              End Site
              {
                OFFSET -0.0282102 7.19214 -0.829004
              }
            }
          }
        }
      }
    }
  }
}
MOTION
Frames: 4
Frame Time: 0.00208333
55.2844 91.6354 14.3628 0.00963279 0.574387 -0.6082 -0.00882786 -2.42143 -0.0020401 -0.0266961 -0.835171 0.00286701 -0.0266992 0.809915 0.00338639 0.0725932 17.4549 -0.236802 -0.11374 1.8035 -0.223537 43.116 -12.6227 -8.36506 54.4021 26.6343 46.8406 -1.50428e-05 -2.38299e-06 -5.6327e-06 -3.53955 2.38997 -0.822455 -5.01972e-06 -3.55225e-06 -3 8.02898 -4.95144 0.697663 -40.4091 -13.2095 8.9876 -47.0809 34.9754 -55.4168 -2.00473e-07 1.88888e-06 -6.1997e-08 3.60401 -0.0325627 -0.594216 9.38484e-06 -1.19803e-06 3.07703 -8.02923 -4.95143 -0.697652 176.641 4.42543 0.368427 -180 7.01563e-15 178.995 177.915 5.90922 179.931 -1.28083e-06 6.95289e-06 0.0776744 -18.9605 68.3098 19.7978 8.13649 25.2327 -3.48774 -176.716 1.05057 0.707986 4.54188e-06 -4.6773e-06 -1.07489 -1.85473 -5.93541 0.0731628 5.36346e-07 -3.52843e-06 -0.0696308 18.8045 68.1153 -19.6248 -8.13649 25.2327 3.48774 
55.2813 91.6342 14.3565 0.00995224 0.57472 -0.608087 -0.00881046 -2.42208 -0.00203245 -0.0265191 -0.835146 0.00235687 -0.0265264 0.809939 0.0028707 0.0716494 17.4584 -0.237304 -0.113709 1.80127 -0.224329 43.1176 -12.6219 -8.36422 54.3974 26.6343 46.8418 -1.50428e-05 -2.38299e-06 -5.6327e-06 -3.53808 2.38541 -0.822785 -5.01972e-06 -3.55225e-06 -3 8.02898 -4.95144 0.697663 -40.4097 -13.2084 8.98651 -47.0803 34.9751 -55.4156 -2.00473e-07 1.88888e-06 -6.1997e-08 3.60279 -0.0325571 -0.594082 9.38484e-06 -1.19803e-06 3.07703 -8.02923 -4.95143 -0.697652 176.639 4.42587 0.369263 -180 7.01563e-15 178.995 177.915 5.91232 179.931 -1.28083e-06 6.95289e-06 0.0777692 -18.962 68.3114 19.7994 8.13649 25.2327 -3.48774 -176.717 1.04747 0.708405 4.54188e-06 -4.6773e-06 -1.0749 -1.85512 -5.93263 0.0731469 5.36346e-07 -3.52843e-06 -0.069629 18.8037 68.1145 -19.624 -8.13649 25.2327 3.48774 
55.2868 91.6337 14.3618 0.0103666 0.574641 -0.608049 -0.00880111 -2.42278 -0.00202199 -0.0262404 -0.834972 0.00171483 -0.0262532 0.810113 0.00222012 0.070808 17.4619 -0.238014 -0.113819 1.79916 -0.2253 43.1192 -12.621 -8.36328 54.3916 26.6349 46.8434 -1.50428e-05 -2.38299e-06 -5.6327e-06 -3.5365 2.37854 -0.823264 -5.01972e-06 -3.55225e-06 -3 8.02898 -4.95144 0.697663 -40.4114 -13.207 8.98502 -47.0787 34.9743 -55.4147 -2.00473e-07 1.88888e-06 -6.1997e-08 3.60143 -0.0325516 -0.593933 9.38484e-06 -1.19803e-06 3.07702 -8.02923 -4.95143 -0.697652 176.637 4.42612 0.370235 -180 7.01563e-15 178.995 177.915 5.9158 179.932 -1.28083e-06 6.95289e-06 0.0778612 -18.9636 68.3133 19.8011 8.13649 25.2327 -3.48774 -176.719 1.04339 0.708778 4.54188e-06 -4.6773e-06 -1.07491 -1.85567 -5.92882 0.0731471 5.36346e-07 -3.52843e-06 -0.0696271 18.8025 68.1132 -19.6228 -8.13649 25.2327 3.48774 
55.2896 91.633 14.3721 0.0108599 0.574216 -0.608079 -0.00879892 -2.4235 -0.00200828 -0.0258748 -0.834672 0.000967876 -0.025894 0.810412 0.00146208 0.0700226 17.4654 -0.238885 -0.11402 1.79718 -0.226415 43.1207 -12.6201 -8.36227 54.3849 26.6361 46.8455 -1.50428e-05 -2.38299e-06 -5.6327e-06 -3.53483 2.36969 -0.823868 -5.01972e-06 -3.55225e-06 -3 8.02898 -4.95144 0.697663 -40.4141 -13.2053 8.98318 -47.076 34.9733 -55.4141 -2.00473e-07 1.88888e-06 -6.1997e-08 3.59996 -0.0325461 -0.593774 9.38484e-06 -1.19803e-06 3.07702 -8.02923 -4.95143 -0.697652 176.635 4.4262 0.371318 -180 7.01563e-15 178.995 177.916 5.91954 179.932 -1.28083e-06 6.95289e-06 0.0779501 -18.9654 68.3153 19.8031 8.13649 25.2327 -3.48774 -176.72 1.03847 0.709111 4.54188e-06 -4.6773e-06 -1.07492 -1.85635 -5.92416 0.0731602 5.36346e-07 -3.52843e-06 -0.0696251 18.801 68.1115 -19.6212 -8.13649 25.2327 3.48774 
